<?xml version="1.0" encoding="UTF-8"?>
<svg version="1.1" xmlns="http://www.w3.org/2000/svg" width="512" height="512">
<path d="M0 0 C1.01790619 0.00215515 2.03581238 0.0043103 3.08456421 0.00653076 C17.69363523 0.05620146 32.02575853 0.30709809 46.375 3.3125 C47.34985352 3.51117676 48.32470703 3.70985352 49.32910156 3.91455078 C97.7109774 14.03517194 141.69928269 35.9516877 177.375 70.3125 C178.3640332 71.26068604 178.3640332 71.26068604 179.37304688 72.22802734 C188.86130305 81.37247479 197.6012044 90.66984009 205.375 101.3125 C206.23306152 102.46355017 207.09113451 103.61459177 207.94921875 104.765625 C213.98677396 112.95525981 219.36957302 121.45788276 224.375 130.3125 C224.7771875 131.01971191 225.179375 131.72692383 225.59375 132.45556641 C238.6191741 155.59095836 247.36801461 180.76212409 252.6875 206.75 C252.83485596 207.46889404 252.98221191 208.18778809 253.1340332 208.9284668 C256.10789088 224.57475609 256.74800362 240.04818046 256.6875 255.9375 C256.68534485 256.95540619 256.6831897 257.97331238 256.68096924 259.02206421 C256.63129854 273.63113523 256.38040191 287.96325853 253.375 302.3125 C253.07698486 303.77478027 253.07698486 303.77478027 252.77294922 305.26660156 C242.65232806 353.6484774 220.7358123 397.63678269 186.375 433.3125 C185.74287598 433.97185547 185.11075195 434.63121094 184.45947266 435.31054688 C175.31502521 444.79880305 166.01765991 453.5387044 155.375 461.3125 C154.22394983 462.17056152 153.07290823 463.02863451 151.921875 463.88671875 C143.73224019 469.92427396 135.22961724 475.30707302 126.375 480.3125 C125.66778809 480.7146875 124.96057617 481.116875 124.23193359 481.53125 C101.09654164 494.5566741 75.92537591 503.30551461 49.9375 508.625 C49.21860596 508.77235596 48.49971191 508.91971191 47.7590332 509.0715332 C32.11274391 512.04539088 16.63931954 512.68550362 0.75 512.625 C-0.77685928 512.62176727 -0.77685928 512.62176727 -2.33456421 512.61846924 C-16.94363523 512.56879854 -31.27575853 512.31790191 -45.625 509.3125 C-47.08728027 509.01448486 -47.08728027 509.01448486 -48.57910156 508.71044922 C-96.9609774 498.58982806 -140.94928269 476.6733123 -176.625 442.3125 C-177.28435547 441.68037598 -177.94371094 441.04825195 -178.62304688 440.39697266 C-188.11130305 431.25252521 -196.8512044 421.95515991 -204.625 411.3125 C-205.48306152 410.16144983 -206.34113451 409.01040823 -207.19921875 407.859375 C-213.23677396 399.66974019 -218.61957302 391.16711724 -223.625 382.3125 C-224.0271875 381.60528809 -224.429375 380.89807617 -224.84375 380.16943359 C-237.8691741 357.03404164 -246.61801461 331.86287591 -251.9375 305.875 C-252.08485596 305.15610596 -252.23221191 304.43721191 -252.3840332 303.6965332 C-255.35789088 288.05024391 -255.99800362 272.57681954 -255.9375 256.6875 C-255.93534485 255.66959381 -255.9331897 254.65168762 -255.93096924 253.60293579 C-255.88129854 238.99386477 -255.63040191 224.66174147 -252.625 210.3125 C-252.42632324 209.33764648 -252.22764648 208.36279297 -252.02294922 207.35839844 C-241.90232806 158.9765226 -219.9858123 114.98821731 -185.625 79.3125 C-184.99287598 78.65314453 -184.36075195 77.99378906 -183.70947266 77.31445312 C-174.56502521 67.82619695 -165.26765991 59.0862956 -154.625 51.3125 C-153.47394983 50.45443848 -152.32290823 49.59636549 -151.171875 48.73828125 C-142.98224019 42.70072604 -134.47961724 37.31792698 -125.625 32.3125 C-124.91778809 31.9103125 -124.21057617 31.508125 -123.48193359 31.09375 C-100.34654164 18.0683259 -75.17537591 9.31948539 -49.1875 4 C-48.46860596 3.85264404 -47.74971191 3.70528809 -47.0090332 3.5534668 C-31.36274391 0.57960912 -15.88931954 -0.06050362 0 0 Z " fill="#BD081C" transform="translate(255.625,-0.3125)"/>
<path d="M0 0 C1.01790619 0.00215515 2.03581238 0.0043103 3.08456421 0.00653076 C17.69363523 0.05620146 32.02575853 0.30709809 46.375 3.3125 C47.34985352 3.51117676 48.32470703 3.70985352 49.32910156 3.91455078 C97.7109774 14.03517194 141.69928269 35.9516877 177.375 70.3125 C178.3640332 71.26068604 178.3640332 71.26068604 179.37304688 72.22802734 C188.86130305 81.37247479 197.6012044 90.66984009 205.375 101.3125 C206.23306152 102.46355017 207.09113451 103.61459177 207.94921875 104.765625 C213.98677396 112.95525981 219.36957302 121.45788276 224.375 130.3125 C224.7771875 131.01971191 225.179375 131.72692383 225.59375 132.45556641 C238.6191741 155.59095836 247.36801461 180.76212409 252.6875 206.75 C252.83485596 207.46889404 252.98221191 208.18778809 253.1340332 208.9284668 C256.10789088 224.57475609 256.74800362 240.04818046 256.6875 255.9375 C256.68534485 256.95540619 256.6831897 257.97331238 256.68096924 259.02206421 C256.63129854 273.63113523 256.38040191 287.96325853 253.375 302.3125 C253.07698486 303.77478027 253.07698486 303.77478027 252.77294922 305.26660156 C242.65232806 353.6484774 220.7358123 397.63678269 186.375 433.3125 C185.74287598 433.97185547 185.11075195 434.63121094 184.45947266 435.31054688 C175.31502521 444.79880305 166.01765991 453.5387044 155.375 461.3125 C154.22394983 462.17056152 153.07290823 463.02863451 151.921875 463.88671875 C143.73224019 469.92427396 135.22961724 475.30707302 126.375 480.3125 C125.66778809 480.7146875 124.96057617 481.116875 124.23193359 481.53125 C101.09654164 494.5566741 75.92537591 503.30551461 49.9375 508.625 C49.21860596 508.77235596 48.49971191 508.91971191 47.7590332 509.0715332 C32.11274391 512.04539088 16.63931954 512.68550362 0.75 512.625 C-0.77685928 512.62176727 -0.77685928 512.62176727 -2.33456421 512.61846924 C-16.94363523 512.56879854 -31.27575853 512.31790191 -45.625 509.3125 C-47.08728027 509.01448486 -47.08728027 509.01448486 -48.57910156 508.71044922 C-96.9609774 498.58982806 -140.94928269 476.6733123 -176.625 442.3125 C-177.28435547 441.68037598 -177.94371094 441.04825195 -178.62304688 440.39697266 C-188.11130305 431.25252521 -196.8512044 421.95515991 -204.625 411.3125 C-205.48306152 410.16144983 -206.34113451 409.01040823 -207.19921875 407.859375 C-213.23677396 399.66974019 -218.61957302 391.16711724 -223.625 382.3125 C-224.0271875 381.60528809 -224.429375 380.89807617 -224.84375 380.16943359 C-237.8691741 357.03404164 -246.61801461 331.86287591 -251.9375 305.875 C-252.08485596 305.15610596 -252.23221191 304.43721191 -252.3840332 303.6965332 C-255.35789088 288.05024391 -255.99800362 272.57681954 -255.9375 256.6875 C-255.93534485 255.66959381 -255.9331897 254.65168762 -255.93096924 253.60293579 C-255.88129854 238.99386477 -255.63040191 224.66174147 -252.625 210.3125 C-252.42632324 209.33764648 -252.22764648 208.36279297 -252.02294922 207.35839844 C-241.90232806 158.9765226 -219.9858123 114.98821731 -185.625 79.3125 C-184.99287598 78.65314453 -184.36075195 77.99378906 -183.70947266 77.31445312 C-174.56502521 67.82619695 -165.26765991 59.0862956 -154.625 51.3125 C-153.47394983 50.45443848 -152.32290823 49.59636549 -151.171875 48.73828125 C-142.98224019 42.70072604 -134.47961724 37.31792698 -125.625 32.3125 C-124.91778809 31.9103125 -124.21057617 31.508125 -123.48193359 31.09375 C-100.34654164 18.0683259 -75.17537591 9.31948539 -49.1875 4 C-48.46860596 3.85264404 -47.74971191 3.70528809 -47.0090332 3.5534668 C-31.36274391 0.57960912 -15.88931954 -0.06050362 0 0 Z M-41.625 33.3125 C-43.06504395 33.61051514 -43.06504395 33.61051514 -44.53417969 33.91455078 C-65.67796711 38.34022595 -85.62290408 45.00768634 -104.625 55.3125 C-105.27098145 55.65361816 -105.91696289 55.99473633 -106.58251953 56.34619141 C-122.61593898 64.81868748 -137.09477313 75.26687576 -150.625 87.3125 C-151.13901367 87.7647998 -151.65302734 88.21709961 -152.18261719 88.68310547 C-189.16496945 121.30028967 -212.19075126 165.52701442 -222.625 213.3125 C-222.80724121 214.13572754 -222.98948242 214.95895508 -223.17724609 215.80712891 C-228.68762843 242.05409434 -227.17480099 272.06364814 -222.625 298.3125 C-222.49641602 299.09141602 -222.36783203 299.87033203 -222.23535156 300.67285156 C-215.4008793 340.58408271 -194.93645836 378.5044367 -167.66015625 408.08984375 C-165.81852366 410.10114691 -164.0641381 412.16069672 -162.3125 414.25 C-145.06964031 433.88879235 -121.94092578 448.79645924 -98.8125 460.5 C-97.88735596 460.97002441 -96.96221191 461.44004883 -96.0090332 461.92431641 C-95.13335693 462.35534668 -94.25768066 462.78637695 -93.35546875 463.23046875 C-92.20147583 463.79930786 -92.20147583 463.79930786 -91.02416992 464.37963867 C-88.24615303 465.45980582 -85.5712364 465.90954359 -82.625 466.3125 C-82.63166183 465.65454437 -82.63832367 464.99658875 -82.64518738 464.31869507 C-82.71208918 457.40684955 -82.75702585 450.49509754 -82.78979492 443.58300781 C-82.80478577 441.01102964 -82.82518528 438.4390766 -82.85131836 435.8671875 C-83.11302096 409.43009354 -83.11302096 409.43009354 -79.625 397.3125 C-79.18338787 395.44617634 -78.74225412 393.57970368 -78.31468201 391.71011353 C-77.86090804 389.72791446 -77.39420219 387.74920094 -76.92333984 385.77099609 C-73.88598933 372.99887046 -70.90693361 360.21519346 -68.0043335 347.41177368 C-65.54372151 336.55967974 -63.03521972 325.72766494 -60.3125 314.9375 C-60.06991455 313.97465088 -59.8273291 313.01180176 -59.57739258 312.01977539 C-58.74487787 308.72336831 -57.91137568 305.42726607 -57.06542969 302.13427734 C-56.59650797 300.30028235 -56.14132549 298.4627888 -55.6875 296.625 C-55.33365234 295.22701172 -55.33365234 295.22701172 -54.97265625 293.80078125 C-54.27694401 288.82135767 -56.20476234 284.23586602 -57.625 279.5 C-59.07012062 274.43684187 -60.40923895 269.5896557 -60.625 264.3125 C-60.6765625 263.15363281 -60.728125 261.99476563 -60.78125 260.80078125 C-61.31373613 242.78500042 -57.61137094 226.22720849 -45.625 212.3125 C-43.13096963 209.93653024 -40.57875211 208.07568024 -37.625 206.3125 C-36.98433594 205.90128906 -36.34367188 205.49007812 -35.68359375 205.06640625 C-27.97639129 200.83987587 -17.92354368 200.8365257 -9.58203125 203.16015625 C-1.84574114 206.6128122 2.57403264 212.56005296 5.77075195 220.27783203 C6.94457811 224.23042482 6.81483211 228.22062503 6.75 232.3125 C6.73984863 233.24239746 6.72969727 234.17229492 6.71923828 235.13037109 C6.43111477 248.07806113 3.05587826 259.81278818 -0.9375 272.04296875 C-2.87442732 278.01324886 -4.62813217 284.03433648 -6.375 290.0625 C-6.81537598 291.58025024 -6.81537598 291.58025024 -7.26464844 293.12866211 C-7.81346211 295.02460715 -8.3594414 296.92137577 -8.90209961 298.8190918 C-9.50815956 300.90949718 -10.15023553 302.98941478 -10.80078125 305.06640625 C-13.18636478 314.46176128 -12.41573872 323.93400671 -8.23046875 332.65625 C-3.22065802 340.94498795 4.08978102 345.95998137 13.25 348.91796875 C28.06618467 351.66876774 42.94628815 347.34351736 55.50390625 339.4375 C77.01920208 323.51325384 88.34867162 297.38711066 92.50170898 271.52954102 C93.5617608 263.68515756 93.66223172 255.84404081 93.6875 247.9375 C93.69297852 246.6904126 93.69845703 245.4433252 93.70410156 244.15844727 C93.5367591 222.40248452 87.76836225 202.01269909 73.375 185.3125 C72.85550781 184.64992187 72.33601563 183.98734375 71.80078125 183.3046875 C57.88346585 166.11865638 34.26738118 156.30101274 12.79492188 153.55126953 C-15.5852514 150.75104662 -44.16605073 156.91835438 -66.75390625 174.84765625 C-76.60922717 183.30848278 -84.16280422 192.02296674 -90.625 203.3125 C-91.18960938 204.28832031 -91.75421875 205.26414063 -92.3359375 206.26953125 C-95.41546526 211.98307133 -97.57652 217.80418267 -99.4375 224 C-99.6447168 224.68876221 -99.85193359 225.37752441 -100.06542969 226.0871582 C-106.16727385 247.68285035 -103.16815098 272.19508661 -93.625 292.3125 C-90.15635892 298.68700056 -90.15635892 298.68700056 -85.625 304.3125 C-85.14446512 311.76460447 -86.57255089 318.09620124 -88.5625 325.25 C-88.84029297 326.28962891 -89.11808594 327.32925781 -89.40429688 328.40039062 C-91.44155543 335.94561086 -91.44155543 335.94561086 -92.625 338.3125 C-101.51688537 338.11490255 -108.64107129 332.45552024 -114.875 326.5 C-127.39623595 313.16437472 -134.65659224 296.6717057 -139.625 279.3125 C-139.96660156 278.18328125 -140.30820313 277.0540625 -140.66015625 275.890625 C-148.61831755 244.35409742 -141.2461784 207.87034134 -124.82080078 180.25292969 C-104.25163432 146.8752786 -72.56713917 127.87513023 -35.0703125 118.2421875 C-22.3295006 115.42414511 -9.8073177 114.86904037 3.1875 114.875 C4.08963226 114.87459717 4.99176453 114.87419434 5.92123413 114.8737793 C28.5797938 114.93192122 48.75083956 118.60033982 69.375 128.3125 C70.13280762 128.66860352 70.89061523 129.02470703 71.67138672 129.39160156 C81.84295789 134.26991608 90.77739559 140.0249019 99.375 147.3125 C99.88369629 147.73756836 100.39239258 148.16263672 100.91650391 148.60058594 C124.09019648 168.12377924 140.48723455 198.00729307 143.375 228.3125 C143.49626826 231.04429745 143.58389678 233.75240014 143.61328125 236.484375 C143.6230751 237.24039505 143.63286896 237.9964151 143.64295959 238.77534485 C143.80705286 254.70995514 143.80520899 269.8809425 139.375 285.3125 C138.93427287 286.98030425 138.49419027 288.64827893 138.0546875 290.31640625 C132.39730625 311.02526413 123.53056295 331.45850024 108.48046875 347.1015625 C106.2605957 349.37051846 106.2605957 349.37051846 104.015625 352.25 C101.31868498 355.51479831 98.27698259 358.09995388 94.9375 360.6875 C94.02278931 361.39749146 94.02278931 361.39749146 93.08959961 362.12182617 C78.48406785 373.2142317 62.41434816 380.17424043 44.375 383.3125 C43.00988281 383.58513672 43.00988281 383.58513672 41.6171875 383.86328125 C20.72186036 386.75841694 2.7984169 383.01966545 -14.515625 371 C-18.40766087 368.01217448 -20.933431 364.3498535 -23.625 360.3125 C-24.285 360.6425 -24.945 360.9725 -25.625 361.3125 C-26.31567222 363.47615561 -26.89687976 365.67497428 -27.4296875 367.8828125 C-27.59493927 368.55609589 -27.76019104 369.22937927 -27.93045044 369.92306519 C-28.46139807 372.09273853 -28.98106815 374.26492461 -29.5 376.4375 C-30.18212365 379.25328056 -30.86836354 382.06805316 -31.5546875 384.8828125 C-31.72514587 385.58415314 -31.89560425 386.28549377 -32.07122803 387.00808716 C-39.16528503 416.07983556 -49.07347083 442.69340475 -64.859375 468.27734375 C-66.79261104 471.01540221 -66.79261104 471.01540221 -66.625 473.3125 C-63.23498021 474.27183417 -59.83709405 475.20022297 -56.4375 476.125 C-55.51646484 476.38603516 -54.59542969 476.64707031 -53.64648438 476.91601562 C-36.9941857 481.39719899 -20.2532936 482.80275472 -3.06591797 482.64868164 C-0.22985799 482.62483061 2.6052693 482.62819035 5.44140625 482.63476562 C15.92838649 482.61860414 26.01691303 482.07700833 36.375 480.3125 C37.52234619 480.12409546 37.52234619 480.12409546 38.69287109 479.93188477 C83.28402036 472.18312739 123.78751833 451.57145213 156.375 420.3125 C156.99133301 419.72871582 157.60766602 419.14493164 158.24267578 418.54345703 C183.541227 394.48019882 201.84999568 365.30792208 213.58349609 332.49169922 C214.2148105 330.75353994 214.89099474 329.03169751 215.58203125 327.31640625 C219.44032119 317.70911058 221.3230861 307.42399323 223.375 297.3125 C223.54451172 296.51714844 223.71402344 295.72179687 223.88867188 294.90234375 C235.44465675 238.99247502 220.04989077 178.4406181 189.60546875 131.1328125 C182.23107275 119.96931377 173.62772268 109.95847051 164.375 100.3125 C163.79121582 99.69616699 163.20743164 99.07983398 162.60595703 98.44482422 C152.93764089 88.2801828 142.79751688 79.44935213 131.375 71.3125 C130.76897949 70.87244629 130.16295898 70.43239258 129.53857422 69.97900391 C108.44513266 54.74517656 84.32634686 44.36246504 59.375 37.3125 C58.07175781 36.91804688 58.07175781 36.91804688 56.7421875 36.515625 C51.15697926 34.88174319 45.53493754 33.7125922 39.8125 32.6875 C39.12833008 32.56431396 38.44416016 32.44112793 37.73925781 32.31420898 C29.17320634 30.84210964 20.6364753 30.15713841 11.94921875 30.109375 C11.08778259 30.10231537 10.22634644 30.09525574 9.33880615 30.08798218 C-16.30169176 29.79563298 -16.30169176 29.79563298 -41.625 33.3125 Z " fill="#FEFDFD" transform="translate(255.625,-0.3125)"/>
</svg>
